<?xml version="1.0" encoding="UTF-8" standalone="no"?>
<svg
   xmlns:dc="http://purl.org/dc/elements/1.1/"
   xmlns:cc="http://creativecommons.org/ns#"
   xmlns:rdf="http://www.w3.org/1999/02/22-rdf-syntax-ns#"
   xmlns:svg="http://www.w3.org/2000/svg"
   xmlns="http://www.w3.org/2000/svg"
   width="100mm"
   height="60.915039mm"
   viewBox="0 0 99.999999 60.91504"
   version="1.1"
   id="svg1447">
  <defs
     id="defs1441" />
  <metadata
     id="metadata1444">
    <rdf:RDF>
      <cc:Work
         rdf:about="">
        <dc:format>image/svg+xml</dc:format>
        <dc:type
           rdf:resource="http://purl.org/dc/dcmitype/StillImage" />
        <dc:title></dc:title>
      </cc:Work>
    </rdf:RDF>
  </metadata>
  <path
     id="path5529-0"
     d="m 11.475742,0 v 0.377671 38.639553 h 9.935756 c 6.702574,0 11.684286,-1.580147 14.903931,-4.764569 3.237198,-3.184467 4.8227,-8.135016 4.8227,-14.787626 0,-6.618428 -1.573453,-11.533039 -4.793694,-14.700459 C 33.141152,1.578898 28.147838,0 21.411498,0 Z m 5.403709,4.997003 h 5.229376 c 4.686299,0 8.05499,1.192808 10.168249,3.486276 2.129473,2.276882 3.224852,5.910983 3.224852,10.981765 0,5.105306 -1.094784,8.775196 -3.224852,11.068932 -2.113259,2.293541 -5.48195,3.486275 -10.168249,3.486275 h -5.229376 z"
     style="color:#000000;font-style:normal;font-variant:normal;font-weight:normal;font-stretch:semi-condensed;font-size:3.52777767px;line-height:1.25;font-family:'DejaVu Sans';-inkscape-font-specification:'DejaVu Sans, Semi-Condensed';font-variant-ligatures:normal;font-variant-position:normal;font-variant-caps:normal;font-variant-numeric:normal;font-variant-alternates:normal;font-feature-settings:normal;text-indent:0;text-align:start;text-decoration:none;text-decoration-line:none;text-decoration-style:solid;text-decoration-color:#000000;letter-spacing:0px;word-spacing:0px;text-transform:none;writing-mode:lr-tb;direction:ltr;text-orientation:mixed;dominant-baseline:auto;baseline-shift:baseline;text-anchor:start;white-space:normal;shape-padding:0;clip-rule:nonzero;display:inline;overflow:visible;visibility:visible;opacity:1;isolation:auto;mix-blend-mode:normal;color-interpolation:sRGB;color-interpolation-filters:linearRGB;solid-color:#000000;solid-opacity:1;vector-effect:none;fill:#10263a;fill-opacity:1;fill-rule:nonzero;stroke:none;stroke-width:0.74373889;stroke-linecap:butt;stroke-linejoin:miter;stroke-miterlimit:4;stroke-dasharray:none;stroke-dashoffset:0;stroke-opacity:1;color-rendering:auto;image-rendering:auto;shape-rendering:auto;text-rendering:auto;enable-background:accumulate" />
  <path
     style="fill:#981a20;fill-opacity:1;stroke:none;stroke-width:5.24749136"
     d="m 61.804103,39.023174 h 3.52562 c 0.737789,0 1.230144,0 1.230144,-0.819897 0,-0.491909 -0.492355,-0.491909 -1.148333,-0.491909 h -3.361699 c 0.8196,-4.673551 1.066521,-6.313391 1.393766,-7.379288 0.163623,-0.819898 0.983223,-1.55785 1.885676,-1.55785 0,0 0.98471,0 1.721904,0.409949 -1.557835,0.491909 -1.639795,1.803819 -1.639795,1.967799 0,0.819898 0.655977,1.393915 1.475577,1.393915 0.983223,0 2.049745,-0.819897 2.049745,-2.213783 0,-1.72183 -1.721756,-2.623747 -3.60758,-2.623747 -1.639944,0 -3.44366,0.901858 -4.427626,2.705737 -0.737789,1.393915 -0.983223,3.03371 -1.803864,7.297298 h -2.869642 c -0.737789,0 -1.230144,0 -1.230144,0.819897 0,0.491909 0.492355,0.491909 1.148332,0.491909 h 2.705722 c 0,0.246029 -2.295773,13.36469 -3.197779,17.300318 -0.163623,0.819897 -0.8196,3.525664 -2.541653,3.525664 -0.08925,0 -0.901412,0 -1.639944,-0.409949 1.475577,-0.491909 1.639944,-1.803834 1.639944,-1.967814 0,-0.819898 -0.655978,-1.393915 -1.475578,-1.393915 -0.98471,0 -2.049893,0.819898 -2.049893,2.213783 0,1.63984 1.721904,2.623747 3.525768,2.623747 2.295773,0 3.935569,-2.377763 4.345518,-3.197675 1.311955,-2.459783 2.213813,-6.969324 2.295773,-7.379288 z m 0,0"
     id="path4622-91" />
  <path
     style="fill:#981a20;fill-opacity:1;stroke:none;stroke-width:3.60972095"
     d="m 71.250777,53.640633 c -1.353605,-2.8765 -1.804906,-5.132572 -1.804906,-8.347472 0,-3.214916 0.450706,-5.470988 1.804906,-8.347487 h -0.789851 c -1.748381,2.763689 -2.425184,5.076166 -2.425184,8.347487 0,3.27129 0.676803,5.583783 2.425184,8.347472 z m 0,0"
     id="path4618-2" />
  <path
     id="path4610-7"
     d="m 72.979375,39.473672 v 6.594866 c 0,2.78255 2.338463,5.055104 5.171365,5.055104 2.664965,0 4.909717,-2.155222 4.909717,-4.880786 v -6.769184 h -1.393766 v 6.594866 c 0,2.009687 -1.675793,3.660593 -3.68954,3.660593 -1.962578,0 -3.544362,-1.528071 -3.544362,-3.486275 v -6.769184 z"
     style="color:#000000;font-style:normal;font-variant:normal;font-weight:normal;font-stretch:normal;font-size:medium;line-height:normal;font-family:sans-serif;font-variant-ligatures:normal;font-variant-position:normal;font-variant-caps:normal;font-variant-numeric:normal;font-variant-alternates:normal;font-feature-settings:normal;text-indent:0;text-align:start;text-decoration:none;text-decoration-line:none;text-decoration-style:solid;text-decoration-color:#000000;letter-spacing:normal;word-spacing:normal;text-transform:none;writing-mode:lr-tb;direction:ltr;text-orientation:mixed;dominant-baseline:auto;baseline-shift:baseline;text-anchor:start;white-space:normal;shape-padding:0;clip-rule:nonzero;display:inline;overflow:visible;visibility:visible;opacity:1;isolation:auto;mix-blend-mode:normal;color-interpolation:sRGB;color-interpolation-filters:linearRGB;solid-color:#000000;solid-opacity:1;vector-effect:none;fill:#981a20;fill-opacity:1;fill-rule:nonzero;stroke:none;stroke-width:0.44624329;stroke-linecap:butt;stroke-linejoin:miter;stroke-miterlimit:4;stroke-dasharray:none;stroke-dashoffset:0;stroke-opacity:1;color-rendering:auto;image-rendering:auto;shape-rendering:auto;text-rendering:auto;enable-background:accumulate" />
  <path
     id="path4614-0"
     d="m 89.945843,39.473672 c -2.722084,0 -4.967878,2.179646 -4.967878,4.851736 v 6.798234 h 1.423516 v -6.623917 c 0,-2.013851 1.64515,-3.660593 3.718694,-3.660593 1.958265,0 3.544362,1.588031 3.544362,3.486276 v 6.798234 h 1.365505 c 0,-2.207997 0,-4.415994 0,-6.623991 0,-2.78255 -2.304996,-5.026054 -5.084199,-5.026054 z"
     style="color:#000000;font-style:normal;font-variant:normal;font-weight:normal;font-stretch:normal;font-size:medium;line-height:normal;font-family:sans-serif;font-variant-ligatures:normal;font-variant-position:normal;font-variant-caps:normal;font-variant-numeric:normal;font-variant-alternates:normal;font-feature-settings:normal;text-indent:0;text-align:start;text-decoration:none;text-decoration-line:none;text-decoration-style:solid;text-decoration-color:#000000;letter-spacing:normal;word-spacing:normal;text-transform:none;writing-mode:lr-tb;direction:ltr;text-orientation:mixed;dominant-baseline:auto;baseline-shift:baseline;text-anchor:start;white-space:normal;shape-padding:0;clip-rule:nonzero;display:inline;overflow:visible;visibility:visible;opacity:1;isolation:auto;mix-blend-mode:normal;color-interpolation:sRGB;color-interpolation-filters:linearRGB;solid-color:#000000;solid-opacity:1;vector-effect:none;fill:#981a20;fill-opacity:1;fill-rule:nonzero;stroke:none;stroke-width:0.44624329;stroke-linecap:butt;stroke-linejoin:miter;stroke-miterlimit:4;stroke-dasharray:none;stroke-dashoffset:0;stroke-opacity:1;color-rendering:auto;image-rendering:auto;shape-rendering:auto;text-rendering:auto;enable-background:accumulate" />
  <path
     style="fill:#981a20;fill-opacity:1;stroke:none;stroke-width:3.60972095"
     d="m 100,45.293161 c 0,-3.271306 -0.6768,-5.583813 -2.42533,-8.347472 h -0.789851 c 1.353605,2.876484 1.804905,5.132571 1.804905,8.347472 0,3.214885 -0.450705,5.470958 -1.804905,8.347472 H 97.57467 C 99.3232,50.876944 100,48.564466 100,45.293161 Z m 0,0"
     id="path4606-9" />
  <path
     id="path5527-6"
     d="M 0,0 V 0.377671 39.017224 H 5.403709 V 0 Z"
     style="color:#000000;font-style:normal;font-variant:normal;font-weight:normal;font-stretch:semi-condensed;font-size:3.52777767px;line-height:1.25;font-family:'DejaVu Sans';-inkscape-font-specification:'DejaVu Sans, Semi-Condensed';font-variant-ligatures:normal;font-variant-position:normal;font-variant-caps:normal;font-variant-numeric:normal;font-variant-alternates:normal;font-feature-settings:normal;text-indent:0;text-align:start;text-decoration:none;text-decoration-line:none;text-decoration-style:solid;text-decoration-color:#000000;letter-spacing:0px;word-spacing:0px;text-transform:none;writing-mode:lr-tb;direction:ltr;text-orientation:mixed;dominant-baseline:auto;baseline-shift:baseline;text-anchor:start;white-space:normal;shape-padding:0;clip-rule:nonzero;display:inline;overflow:visible;visibility:visible;opacity:1;isolation:auto;mix-blend-mode:normal;color-interpolation:sRGB;color-interpolation-filters:linearRGB;solid-color:#000000;solid-opacity:1;vector-effect:none;fill:#10263a;fill-opacity:1;fill-rule:nonzero;stroke:none;stroke-width:0.74373889;stroke-linecap:butt;stroke-linejoin:miter;stroke-miterlimit:4;stroke-dasharray:none;stroke-dashoffset:0;stroke-opacity:1;color-rendering:auto;image-rendering:auto;shape-rendering:auto;text-rendering:auto;enable-background:accumulate" />
  <path
     id="path5531-6"
     d="m 45.931675,0 c 0,13.005747 0,26.011478 0,39.017224 h 5.403709 V 23.64856 h 5.461869 c 3.922479,0 6.955,-1.005832 9.006232,-3.021439 2.068337,-2.014774 3.079525,-4.962731 3.079525,-8.802833 0,-3.80656 -1.011485,-6.759783 -3.079525,-8.773798 C 63.75255,1.017435 60.720178,0 56.797253,0 Z m 5.403709,4.997003 h 5.461869 c 2.098088,0 3.664253,0.607932 4.76454,1.772196 1.117096,1.164992 1.685164,2.830908 1.685164,5.055104 0,2.241747 -0.568217,3.89078 -1.685164,5.055088 -1.100733,1.164249 -2.666452,1.772196 -4.76454,1.772196 h -5.461869 z"
     style="color:#000000;font-style:normal;font-variant:normal;font-weight:normal;font-stretch:semi-condensed;font-size:3.52777767px;line-height:1.25;font-family:'DejaVu Sans';-inkscape-font-specification:'DejaVu Sans, Semi-Condensed';font-variant-ligatures:normal;font-variant-position:normal;font-variant-caps:normal;font-variant-numeric:normal;font-variant-alternates:normal;font-feature-settings:normal;text-indent:0;text-align:start;text-decoration:none;text-decoration-line:none;text-decoration-style:solid;text-decoration-color:#000000;letter-spacing:0px;word-spacing:0px;text-transform:none;writing-mode:lr-tb;direction:ltr;text-orientation:mixed;dominant-baseline:auto;baseline-shift:baseline;text-anchor:start;white-space:normal;shape-padding:0;clip-rule:nonzero;display:inline;overflow:visible;visibility:visible;opacity:1;isolation:auto;mix-blend-mode:normal;color-interpolation:sRGB;color-interpolation-filters:linearRGB;solid-color:#000000;solid-opacity:1;vector-effect:none;fill:#10263a;fill-opacity:1;fill-rule:nonzero;stroke:none;stroke-width:0.74373889;stroke-linecap:butt;stroke-linejoin:miter;stroke-miterlimit:4;stroke-dasharray:none;stroke-dashoffset:0;stroke-opacity:1;color-rendering:auto;image-rendering:auto;shape-rendering:auto;text-rendering:auto;enable-background:accumulate" />
  <path
     id="path5529-0-0"
     d="m 22.286135,25.593928 h 2.192839 c 1.965256,0 3.377765,-0.500239 4.264004,-1.461893 0.893974,-0.961803 1.352117,-2.500822 1.352117,-4.641704 0,-2.126394 -0.459631,-3.650344 -1.352117,-4.605142 -0.886537,-0.961803 -2.298748,-1.461893 -4.264004,-1.461893 h -2.192839 z"
     style="color:#000000;font-style:normal;font-variant:normal;font-weight:normal;font-stretch:semi-condensed;font-size:3.52777767px;line-height:1.25;font-family:'DejaVu Sans';-inkscape-font-specification:'DejaVu Sans, Semi-Condensed';font-variant-ligatures:normal;font-variant-position:normal;font-variant-caps:normal;font-variant-numeric:normal;font-variant-alternates:normal;font-feature-settings:normal;text-indent:0;text-align:start;text-decoration:none;text-decoration-line:none;text-decoration-style:solid;text-decoration-color:#000000;letter-spacing:0px;word-spacing:0px;text-transform:none;writing-mode:lr-tb;direction:ltr;text-orientation:mixed;dominant-baseline:auto;baseline-shift:baseline;text-anchor:start;white-space:normal;shape-padding:0;clip-rule:nonzero;display:inline;overflow:visible;visibility:visible;opacity:1;isolation:auto;mix-blend-mode:normal;color-interpolation:sRGB;color-interpolation-filters:linearRGB;solid-color:#000000;solid-opacity:1;vector-effect:none;fill:#981a20;fill-opacity:1;fill-rule:nonzero;stroke:none;stroke-width:0.311883;stroke-linecap:butt;stroke-linejoin:miter;stroke-miterlimit:4;stroke-dasharray:none;stroke-dashoffset:0;stroke-opacity:1;color-rendering:auto;image-rendering:auto;shape-rendering:auto;text-rendering:auto;enable-background:accumulate" />
</svg>
